<svg width="28" height="31" viewBox="0 0 28 31" fill="none" xmlns="http://www.w3.org/2000/svg">
<path d="M16.5788 7.56801C17.6623 7.80193 18.6581 8.3883 19.4387 9.25208C20.2193 10.1158 20.7492 11.2177 20.9606 12.4167M16.5788 2.65796C18.8299 2.93468 20.9291 4.05017 22.5317 5.82127C24.1343 7.59236 25.145 9.9138 25.398 12.4044M24.2886 22.2V25.8825C24.2899 26.2244 24.2266 26.5627 24.1028 26.876C23.9791 27.1892 23.7975 27.4704 23.5699 27.7015C23.3422 27.9326 23.0734 28.1086 22.7808 28.2181C22.4881 28.3276 22.178 28.3683 21.8703 28.3375C18.4567 27.9271 15.1777 26.6364 12.2967 24.5691C9.61639 22.6844 7.34393 20.1699 5.64073 17.204C3.76593 14.0017 2.59921 10.3557 2.23508 6.56145C2.20736 6.222 2.24381 5.87988 2.34213 5.55688C2.44044 5.23388 2.59846 4.93707 2.80613 4.68534C3.01379 4.43362 3.26654 4.2325 3.5483 4.09479C3.83005 3.95708 4.13463 3.88579 4.44265 3.88547H7.77065C8.30902 3.87961 8.83094 4.09056 9.23915 4.47901C9.64735 4.86746 9.91397 5.40691 9.98932 5.99679C10.1298 7.17529 10.3903 8.33241 10.7659 9.4461C10.9151 9.88546 10.9474 10.3629 10.8589 10.822C10.7705 11.281 10.5649 11.7024 10.2667 12.0362L8.8578 13.5951C10.437 16.6682 12.7365 19.2127 15.5138 20.9602L16.9227 19.4012C17.2243 19.0712 17.6051 18.8438 18.0199 18.7458C18.4348 18.6479 18.8663 18.6837 19.2633 18.8488C20.2698 19.2644 21.3155 19.5527 22.3806 19.7081C22.9194 19.7922 23.4116 20.0926 23.7634 20.552C24.1152 21.0115 24.3021 21.598 24.2886 22.2Z" stroke="#E30C40" stroke-width="3.58182" stroke-linecap="round" stroke-linejoin="round"/>
</svg>
