<svg width="60" height="62" viewBox="0 0 60 62" fill="none" xmlns="http://www.w3.org/2000/svg">
<g filter="url(#filter0_dd_184_3654)">
<path d="M41.052 32.0571C40.2886 34.0129 39.0945 35.7364 37.5742 37.0768C36.054 38.4172 34.2537 39.3338 32.3309 39.7463C30.4081 40.1589 28.4213 40.0549 26.5442 39.4434C24.667 38.832 22.9567 37.7317 21.5628 36.2388C20.1689 34.7458 19.1338 32.9057 18.548 30.8792C17.9621 28.8528 17.8435 26.7017 18.2023 24.6141C18.5612 22.5265 19.3866 20.5659 20.6065 18.9037C21.8263 17.2416 23.4035 15.9284 25.2 15.0791" stroke="#E30C40" stroke-width="3.7" stroke-linecap="round" stroke-linejoin="round"/>
<path d="M42.0005 27C42.0005 25.2928 41.6901 23.6023 41.087 22.0251C40.484 20.4479 39.6001 19.0148 38.4858 17.8076C37.3715 16.6005 36.0486 15.6429 34.5927 14.9896C33.1368 14.3363 31.5764 14 30.0005 14V27H42.0005Z" stroke="#E30C40" stroke-width="3.7" stroke-linecap="round" stroke-linejoin="round"/>
</g>
<defs>
<filter id="filter0_dd_184_3654" x="-10" y="-11" width="80" height="84" filterUnits="userSpaceOnUse" color-interpolation-filters="sRGB">
<feFlood flood-opacity="0" result="BackgroundImageFix"/>
<feColorMatrix in="SourceAlpha" type="matrix" values="0 0 0 0 0 0 0 0 0 0 0 0 0 0 0 0 0 0 127 0" result="hardAlpha"/>
<feOffset dy="4"/>
<feGaussianBlur stdDeviation="8"/>
<feColorMatrix type="matrix" values="0 0 0 0 0.14902 0 0 0 0 0.196078 0 0 0 0 0.219608 0 0 0 0.08 0"/>
<feBlend mode="multiply" in2="BackgroundImageFix" result="effect1_dropShadow_184_3654"/>
<feColorMatrix in="SourceAlpha" type="matrix" values="0 0 0 0 0 0 0 0 0 0 0 0 0 0 0 0 0 0 127 0" result="hardAlpha"/>
<feOffset dy="4"/>
<feGaussianBlur stdDeviation="3"/>
<feColorMatrix type="matrix" values="0 0 0 0 0.14902 0 0 0 0 0.196078 0 0 0 0 0.219608 0 0 0 0.16 0"/>
<feBlend mode="multiply" in2="effect1_dropShadow_184_3654" result="effect2_dropShadow_184_3654"/>
<feBlend mode="normal" in="SourceGraphic" in2="effect2_dropShadow_184_3654" result="shape"/>
</filter>
</defs>
</svg>
