<svg width="28" height="30" viewBox="0 0 28 30" fill="none" xmlns="http://www.w3.org/2000/svg">
<path d="M8.625 28H5.1C4.47674 28 3.87901 27.7261 3.4383 27.2385C2.99759 26.7509 2.75 26.0896 2.75 25.4V16.3C2.75 15.6104 2.99759 14.9491 3.4383 14.4615C3.87901 13.9739 4.47674 13.7 5.1 13.7H8.625M16.85 11.1V5.9C16.85 4.86566 16.4786 3.87368 15.8176 3.14228C15.1565 2.41089 14.2599 2 13.325 2L8.625 13.7V28H21.879C22.4457 28.0071 22.9957 27.7873 23.4275 27.3812C23.8594 26.9751 24.144 26.41 24.229 25.79L25.8505 14.09C25.9016 13.7174 25.8789 13.3369 25.7839 12.9749C25.6889 12.613 25.524 12.2782 25.3004 11.9938C25.0769 11.7094 24.8001 11.4821 24.4893 11.3278C24.1786 11.1735 23.8411 11.0957 23.5005 11.1H16.85Z" stroke="#E30C40" stroke-width="3.7" stroke-linecap="round" stroke-linejoin="round"/>
</svg>
