<svg width="29" height="29" viewBox="0 0 29 29" fill="none" xmlns="http://www.w3.org/2000/svg">
<path fill-rule="evenodd" clip-rule="evenodd" d="M14.5 28.25C22.0938 28.25 28.25 22.0938 28.25 14.5C28.25 6.90608 22.0938 0.75 14.5 0.75C6.90608 0.75 0.75 6.90608 0.75 14.5C0.75 22.0938 6.90608 28.25 14.5 28.25ZM19.3613 9.63865C19.8984 9.10167 20.7689 9.10167 21.306 9.63865C21.8429 10.1756 21.8429 11.0462 21.306 11.5832L13.5328 19.3562L13.5277 19.3613C13.3889 19.5002 13.2277 19.6032 13.0557 19.6703C12.812 19.7652 12.5468 19.7881 12.2929 19.7389C12.0328 19.6886 11.7845 19.5627 11.5832 19.3613L11.578 19.3561L7.69414 15.4723C7.15716 14.9353 7.15716 14.0647 7.69414 13.5277C8.2311 12.9908 9.10171 12.9908 9.63867 13.5277L12.5555 16.4445L19.3613 9.63865Z" fill="#E30C40"/>
</svg>
