<svg width="35" height="35" viewBox="0 0 35 35" fill="none" xmlns="http://www.w3.org/2000/svg">
<path d="M4.375 8.75001C4.375 7.9446 5.02793 7.29167 5.83333 7.29167H29.1667C29.9721 7.29167 30.625 7.9446 30.625 8.75001C30.625 9.55541 29.9721 10.2083 29.1667 10.2083H5.83333C5.02793 10.2083 4.375 9.55541 4.375 8.75001Z" fill="black"/>
<path d="M4.375 17.5C4.375 16.6946 5.02793 16.0417 5.83333 16.0417H29.1667C29.9721 16.0417 30.625 16.6946 30.625 17.5C30.625 18.3054 29.9721 18.9583 29.1667 18.9583H5.83333C5.02793 18.9583 4.375 18.3054 4.375 17.5Z" fill="black"/>
<path d="M5.83333 24.7917C5.02793 24.7917 4.375 25.4446 4.375 26.25C4.375 27.0554 5.02793 27.7083 5.83333 27.7083H29.1667C29.9721 27.7083 30.625 27.0554 30.625 26.25C30.625 25.4446 29.9721 24.7917 29.1667 24.7917H5.83333Z" fill="black"/>
</svg>
