<svg width="43" height="43" viewBox="0 0 43 43" fill="none" xmlns="http://www.w3.org/2000/svg">
<g clip-path="url(#clip0_269_2263)">
<path d="M31.4199 4.13012C30.1334 2.83304 28.6015 1.80057 26.912 1.09188C25.2225 0.383188 23.4086 0.0122135 21.5743 0.000219347C13.8598 -0.0479787 7.56422 6.12393 7.51751 13.7651C7.49185 16.6463 8.38035 19.4626 10.0572 21.8153L14.3997 29.2716L14.4016 29.2751C15.2013 25.9676 16.7782 18.9413 16.7782 18.9413H23.5942L22.4266 24.1337V24.1372H27.7124L24.0624 30.2819H21.0443L20.1873 34.0797C20.1873 34.0797 19.9981 34.8679 20.0294 35.6526C20.031 35.7126 20.0345 35.7729 20.0397 35.8314C20.0449 35.8898 20.0519 35.9501 20.0606 36.0088C20.0693 36.0675 20.0779 36.1241 20.0902 36.1809C20.1005 36.2275 20.1108 36.2754 20.1249 36.3206C20.139 36.3658 20.1507 36.4137 20.1664 36.4566C20.1815 36.5008 20.1994 36.5439 20.2202 36.5858C20.2389 36.6269 20.2598 36.6671 20.2826 36.7062C20.3033 36.7407 20.3258 36.7741 20.3502 36.8061L20.3608 36.8214C20.386 36.8541 20.4132 36.8852 20.4422 36.9146C20.4422 36.9164 20.4422 36.9164 20.4439 36.9181C20.5268 37.002 20.6217 37.0733 20.7256 37.1297C20.7516 37.1434 20.7774 37.1572 20.8054 37.1709C20.8333 37.1847 20.8591 37.1968 20.8868 37.2072C20.9145 37.2177 20.9424 37.2305 20.9718 37.2415C21.0298 37.2622 21.0889 37.28 21.1488 37.2948C21.2096 37.3104 21.2701 37.3225 21.3326 37.3327C21.3657 37.3379 21.3969 37.343 21.4281 37.3465C21.6779 37.378 21.9305 37.3804 22.1809 37.3535C22.2954 37.3414 22.4083 37.326 22.5175 37.3088C22.5294 37.3056 22.5416 37.3032 22.5538 37.3018C22.6243 37.288 22.6928 37.2743 22.7585 37.2606C22.7585 37.2587 22.7604 37.2606 22.7604 37.2606L22.7677 37.2589L22.7977 37.2519L22.8332 37.2436C23.4876 37.0829 23.8425 36.6738 23.9129 36.5849L23.9261 36.5676C23.9866 36.4875 24.038 36.4121 24.0774 36.3509L24.0791 36.3483L24.1612 36.2132L24.165 36.207L33.0083 21.6803L33.0621 21.6027L33.7925 20.3966C33.8705 20.2674 33.9296 20.1419 33.9921 20.011C35.2824 17.4278 35.7282 14.5096 35.2674 11.6632C34.8065 8.81673 33.462 6.18378 31.4211 4.13128L31.4199 4.13012ZM21.4804 16.3654C18.5191 16.3654 16.3526 12.972 18.7196 9.88874C21.8276 7.53867 25.2499 9.68779 25.2499 12.626C25.2498 13.6177 24.8527 14.5688 24.1458 15.27C23.4389 15.9713 22.4802 16.3653 21.4804 16.3654Z" fill="url(#paint0_linear_269_2263)"/>
<path d="M21.2319 40.9991C20.5015 41.4482 19.5335 41.7821 18.2446 41.8699C18.2446 41.8699 12.8027 42.1831 13.1808 35.637C13.1808 35.637 13.5069 32.8406 14.18 30.1699C14.2425 29.9186 14.3171 29.6157 14.4002 29.2769L21.2319 40.9991Z" fill="black"/>
</g>
<defs>
<linearGradient id="paint0_linear_269_2263" x1="32.0689" y1="32.0487" x2="14.7091" y2="1.73656" gradientUnits="userSpaceOnUse">
<stop stop-color="#FF5C00"/>
<stop offset="0.92" stop-color="#E30C40"/>
<stop offset="1" stop-color="#E30C40"/>
</linearGradient>
<clipPath id="clip0_269_2263">
<rect width="27.9252" height="41.8725" fill="white" transform="translate(7.51831)"/>
</clipPath>
</defs>
</svg>
