<svg width="29" height="38" viewBox="0 0 29 38" fill="none" xmlns="http://www.w3.org/2000/svg">
<path d="M24.4199 4.13012C23.1334 2.83304 21.6015 1.80057 19.912 1.09188C18.2225 0.383188 16.4086 0.0122135 14.5743 0.000219347C6.85981 -0.0479787 0.564219 6.12393 0.517508 13.7651C0.491852 16.6463 1.38035 19.4626 3.05725 21.8153L7.39968 29.2716L7.40156 29.2751C8.20127 25.9676 9.77817 18.9413 9.77817 18.9413H16.5942L15.4266 24.1337V24.1372H20.7124L17.0624 30.2819H14.0443L13.1873 34.0797C13.1873 34.0797 12.9981 34.8679 13.0294 35.6526C13.031 35.7126 13.0345 35.7729 13.0397 35.8314C13.0449 35.8898 13.0519 35.9501 13.0606 36.0088C13.0693 36.0675 13.0779 36.1241 13.0902 36.1809C13.1005 36.2275 13.1108 36.2754 13.1249 36.3206C13.139 36.3658 13.1507 36.4137 13.1664 36.4566C13.1815 36.5008 13.1994 36.5439 13.2202 36.5858C13.2389 36.6269 13.2598 36.6671 13.2826 36.7062C13.3033 36.7407 13.3258 36.7741 13.3502 36.8061L13.3608 36.8214C13.386 36.8541 13.4132 36.8852 13.4422 36.9146C13.4422 36.9164 13.4422 36.9164 13.4439 36.9181C13.5268 37.002 13.6217 37.0733 13.7256 37.1297C13.7516 37.1434 13.7774 37.1572 13.8054 37.1709C13.8333 37.1847 13.8591 37.1968 13.8868 37.2072C13.9145 37.2177 13.9424 37.2305 13.9718 37.2415C14.0298 37.2622 14.0889 37.28 14.1488 37.2948C14.2096 37.3104 14.2701 37.3225 14.3326 37.3327C14.3657 37.3379 14.3969 37.343 14.4281 37.3465C14.6779 37.378 14.9305 37.3804 15.1809 37.3535C15.2954 37.3414 15.4083 37.326 15.5175 37.3088C15.5294 37.3056 15.5416 37.3032 15.5538 37.3018C15.6243 37.288 15.6928 37.2743 15.7585 37.2606C15.7585 37.2587 15.7604 37.2606 15.7604 37.2606L15.7677 37.2589L15.7977 37.2519L15.8332 37.2436C16.4876 37.0829 16.8425 36.6738 16.9129 36.5849L16.9261 36.5676C16.9866 36.4875 17.038 36.4121 17.0774 36.3509L17.0791 36.3483L17.1612 36.2132L17.165 36.207L26.0083 21.6803L26.0621 21.6027L26.7925 20.3966C26.8705 20.2674 26.9296 20.1419 26.9921 20.011C28.2824 17.4278 28.7282 14.5096 28.2674 11.6632C27.8065 8.81673 26.462 6.18378 24.4211 4.13128L24.4199 4.13012ZM14.4804 16.3654C11.5191 16.3654 9.35261 12.972 11.7196 9.88874C14.8276 7.53867 18.2499 9.68779 18.2499 12.626C18.2498 13.6177 17.8527 14.5688 17.1458 15.27C16.4389 15.9713 15.4802 16.3653 14.4804 16.3654Z" fill="url(#paint0_linear_269_2266)"/>
<defs>
<linearGradient id="paint0_linear_269_2266" x1="25.0689" y1="32.0487" x2="7.70906" y2="1.73656" gradientUnits="userSpaceOnUse">
<stop stop-color="#FF5C00"/>
<stop offset="0.92" stop-color="#E30C40"/>
<stop offset="1" stop-color="#E30C40"/>
</linearGradient>
</defs>
</svg>
