<svg width="22" height="23" viewBox="0 0 22 23" fill="none" xmlns="http://www.w3.org/2000/svg">
<ellipse cx="11.0826" cy="11.5689" rx="10.8243" ry="10.8204" fill="#E30C40"/>
<path d="M14.9564 9.96959C14.952 9.64178 14.8906 9.31724 14.775 9.01047C14.6747 8.75171 14.5215 8.51671 14.3252 8.32049C14.1289 8.12427 13.8938 7.97113 13.635 7.87087C13.332 7.75719 13.012 7.69573 12.6885 7.68909C12.272 7.67048 12.1399 7.66528 11.0826 7.66528C10.0253 7.66528 9.88977 7.66528 9.47628 7.68909C9.15292 7.69578 8.83304 7.75724 8.53024 7.87087C8.27135 7.97106 8.03623 8.12417 7.83993 8.32041C7.64363 8.51664 7.49046 8.75167 7.39023 9.01047C7.27629 9.31306 7.21493 9.6329 7.20882 9.95617C7.1902 10.373 7.18457 10.505 7.18457 11.5619C7.18457 12.6188 7.18457 12.7539 7.20882 13.1677C7.21531 13.4914 7.27636 13.8108 7.39023 14.1142C7.49063 14.3729 7.64391 14.6079 7.84028 14.804C8.03665 15.0002 8.27179 15.1532 8.53068 15.2534C8.83264 15.3716 9.15258 15.4375 9.47672 15.4481C9.89367 15.4668 10.0257 15.4724 11.083 15.4724C12.1404 15.4724 12.2759 15.4724 12.6894 15.4481C13.0129 15.4418 13.3329 15.3805 13.6358 15.2668C13.8946 15.1664 14.1296 15.0132 14.3259 14.817C14.5222 14.6208 14.6754 14.3859 14.7758 14.1272C14.8897 13.8242 14.9508 13.5048 14.9573 13.1806C14.9759 12.7643 14.9815 12.6323 14.9815 11.5749C14.9806 10.518 14.9806 10.3838 14.9564 9.96959ZM11.08 13.5606C9.9742 13.5606 9.07838 12.6652 9.07838 11.5597C9.07838 10.4543 9.9742 9.55885 11.08 9.55885C11.6109 9.55885 12.12 9.76965 12.4954 10.1449C12.8707 10.5201 13.0816 11.0291 13.0816 11.5597C13.0816 12.0904 12.8707 12.5994 12.4954 12.9746C12.12 13.3498 11.6109 13.5606 11.08 13.5606ZM13.1613 9.95141C13.1 9.95146 13.0393 9.93944 12.9826 9.91601C12.926 9.89258 12.8745 9.85822 12.8311 9.81488C12.7878 9.77154 12.7534 9.72008 12.73 9.66345C12.7065 9.60682 12.6945 9.54612 12.6946 9.48483C12.6946 9.42359 12.7066 9.36295 12.7301 9.30637C12.7535 9.24979 12.7879 9.19837 12.8312 9.15507C12.8745 9.11176 12.9259 9.07741 12.9826 9.05398C13.0392 9.03054 13.0998 9.01848 13.1611 9.01848C13.2223 9.01848 13.283 9.03054 13.3396 9.05398C13.3962 9.07741 13.4476 9.11176 13.491 9.15507C13.5343 9.19837 13.5687 9.24979 13.5921 9.30637C13.6155 9.36295 13.6276 9.42359 13.6276 9.48483C13.6276 9.74279 13.4189 9.95141 13.1613 9.95141Z" fill="white"/>
<path d="M11.08 12.8595C11.7981 12.8595 12.3802 12.2776 12.3802 11.5598C12.3802 10.8419 11.7981 10.26 11.08 10.26C10.3619 10.26 9.77979 10.8419 9.77979 11.5598C9.77979 12.2776 10.3619 12.8595 11.08 12.8595Z" fill="white"/>
</svg>
