<svg width="22" height="23" viewBox="0 0 22 23" fill="none" xmlns="http://www.w3.org/2000/svg">
<ellipse cx="11.0243" cy="11.5689" rx="10.8243" ry="10.8204" fill="#E30C40"/>
<path d="M7.98616 9.48994C8.50936 9.48994 8.9335 9.06596 8.9335 8.54294C8.9335 8.01993 8.50936 7.59595 7.98616 7.59595C7.46296 7.59595 7.03882 8.01993 7.03882 8.54294C7.03882 9.06596 7.46296 9.48994 7.98616 9.48994Z" fill="white"/>
<path d="M9.82801 10.2075V15.4614H11.4599V12.8632C11.4599 12.1777 11.5889 11.5137 12.4393 11.5137C13.2779 11.5137 13.2883 12.2975 13.2883 12.9065V15.4618H14.921V12.5806C14.921 11.1653 14.6162 10.0776 12.9614 10.0776C12.1669 10.0776 11.6344 10.5135 11.4166 10.926H11.3945V10.2075H9.82801ZM7.1687 10.2075H8.80317V15.4614H7.1687V10.2075Z" fill="white"/>
</svg>
