<svg width="22" height="23" viewBox="0 0 22 23" fill="none" xmlns="http://www.w3.org/2000/svg">
<ellipse cx="11.1119" cy="11.5689" rx="10.8243" ry="10.8204" fill="#E30C40"/>
<g clip-path="url(#clip0_437_988)">
<path d="M16.1533 8.51186C15.7918 8.672 15.4034 8.78021 14.9951 8.82912C15.4164 8.57713 15.7316 8.18053 15.8818 7.71332C15.486 7.94834 15.0528 8.11376 14.6011 8.2024C14.2973 7.87817 13.8949 7.66326 13.4565 7.59104C13.018 7.51882 12.5679 7.59334 12.1761 7.80302C11.7844 8.01271 11.4728 8.34582 11.2898 8.75065C11.1068 9.15548 11.0627 9.60937 11.1642 10.0419C10.3622 10.0016 9.57761 9.79323 8.86139 9.43025C8.14517 9.06728 7.5133 8.55781 7.00679 7.93492C6.8336 8.23356 6.73402 8.57982 6.73402 8.94857C6.73383 9.28054 6.81561 9.60742 6.9721 9.90022C7.1286 10.193 7.35497 10.4427 7.63114 10.627C7.31086 10.6168 6.99764 10.5303 6.71757 10.3747V10.4007C6.71754 10.8663 6.87865 11.3175 7.17357 11.6779C7.46848 12.0383 7.87904 12.2855 8.33558 12.3778C8.03847 12.4581 7.72697 12.47 7.42461 12.4124C7.55342 12.813 7.80432 13.1633 8.1422 13.4143C8.48008 13.6653 8.88801 13.8044 9.3089 13.8121C8.59442 14.3728 7.71205 14.6769 6.80373 14.6756C6.64283 14.6756 6.48206 14.6662 6.32227 14.6474C7.24427 15.24 8.31754 15.5545 9.41368 15.5533C13.1242 15.5533 15.1527 12.4812 15.1527 9.8168C15.1527 9.73024 15.1505 9.64281 15.1466 9.55624C15.5412 9.27101 15.8818 8.9178 16.1524 8.51316L16.1533 8.51186Z" fill="white"/>
</g>
<defs>
<clipPath id="clip0_437_988">
<rect width="10.3913" height="10.3875" fill="white" transform="translate(5.9165 6.375)"/>
</clipPath>
</defs>
</svg>
