<svg width="14" height="17" viewBox="0 0 14 17" fill="none" xmlns="http://www.w3.org/2000/svg">
<path d="M10.1261 0.339233C9.27387 0.399653 8.27778 0.958789 7.69731 1.68689C7.16779 2.34741 6.73219 3.32846 6.90204 4.28186C7.83319 4.31156 8.79531 3.73911 9.3528 2.99871C9.87432 2.30952 10.269 1.33462 10.1261 0.339233Z" fill="white"/>
<path d="M13.4987 5.82379C12.6805 4.77208 11.5305 4.16174 10.4445 4.16174C9.01083 4.16174 8.40438 4.86527 7.40829 4.86527C6.38122 4.86527 5.60093 4.16379 4.36106 4.16379C3.14317 4.16379 1.84635 4.92671 1.0241 6.23137C-0.131846 8.06853 0.0659736 11.5227 1.93927 14.4648C2.60966 15.5175 3.50484 16.7013 4.67578 16.7116C5.71783 16.7218 6.01156 16.0265 7.42327 16.0193C8.83499 16.0111 9.10274 16.7208 10.1428 16.7095C11.3147 16.7003 12.2589 15.3885 12.9293 14.3358C13.4098 13.581 13.5887 13.2011 13.9613 12.3491C11.2508 11.2912 10.8162 7.34042 13.4987 5.82379Z" fill="white"/>
</svg>
