<svg width="28" height="17" viewBox="0 0 28 17" fill="none" xmlns="http://www.w3.org/2000/svg">
<path fill-rule="evenodd" clip-rule="evenodd" d="M0.666992 2.45841C0.666992 1.12373 1.8609 0.041748 3.33366 0.041748H24.667C26.1398 0.041748 27.3337 1.12373 27.3337 2.45841V14.5417C27.3337 15.8765 26.1398 16.9584 24.667 16.9584H3.33366C1.8609 16.9584 0.666992 15.8765 0.666992 14.5417V2.45841ZM3.33366 3.88334V13.3334C3.33366 14.0008 3.93062 14.5417 4.66699 14.5417H23.3337C24.0701 14.5417 24.667 14.0008 24.667 13.3334V3.88334L14.0003 9.92507L3.33366 3.88334ZM22.1513 2.45841H5.84938L14.0003 7.07521L22.1513 2.45841Z" fill="white"/>
</svg>
