<svg width="17" height="17" viewBox="0 0 17 17" fill="none" xmlns="http://www.w3.org/2000/svg">
<path d="M15.1662 6.82876L13.2102 5.76953L10.853 8.48199L13.255 11.2505L15.1653 10.2167C15.9628 9.78565 16.4004 9.182 16.4004 8.52141C16.4004 7.86082 15.9637 7.26068 15.1662 6.82876Z" fill="white"/>
<path d="M2.49296 16.7158L9.64665 8.48382L2.58365 0.341202C2.56121 0.340326 2.53784 0.330688 2.5154 0.330688C1.42799 0.330688 0.697754 1.15862 0.697754 2.39219V14.6578C0.699624 15.88 1.42051 16.7035 2.49296 16.7158Z" fill="white"/>
<path d="M12.3898 5.33334L4.34131 0.977295L10.2524 7.7926L12.3898 5.33334Z" fill="white"/>
<path d="M10.2489 9.17749L4.18164 16.161L12.433 11.6954L10.2489 9.17749Z" fill="white"/>
</svg>
