<svg width="184" height="354" viewBox="0 0 184 354" fill="none" xmlns="http://www.w3.org/2000/svg">
<g clip-path="url(#clip0_184_4435)">
<path opacity="0.2" d="M157.72 0.165894H26.2347C12.0555 0.165894 0.517578 11.6853 0.517578 25.8461V328.492C0.517578 342.653 12.0555 352.955 26.2347 352.955H157.72C171.901 352.955 183.437 342.65 183.437 328.492V25.8461C183.437 11.6853 171.899 0.165894 157.72 0.165894Z" fill="#D9D9D9" stroke="black" stroke-miterlimit="10"/>
<path opacity="0.2" d="M156.838 4.02026H23.5768C14.2062 4.02026 6.58252 11.5239 6.58252 20.7478V321.197C6.58252 330.421 14.2062 337.925 23.5768 337.925H156.838C166.209 337.925 173.833 330.421 173.833 321.197V20.7478C173.833 11.5239 166.209 4.02026 156.838 4.02026Z" fill="#EBEBEB" stroke="black" stroke-miterlimit="10"/>
<path d="M156.772 0.343994H26.0235C11.9209 0.343994 0.449219 11.8241 0.449219 25.9372V327.581C0.449219 341.694 11.9209 353.174 26.0235 353.174H156.772C170.872 353.174 182.346 341.694 182.346 327.581V25.9372C182.346 11.8241 170.875 0.343994 156.772 0.343994ZM172.106 325.96H10.6872C10.267 325.96 9.92753 325.621 9.92753 325.201V28.3198C9.92753 27.8996 10.267 27.5601 10.6872 27.5601H172.108C172.528 27.5601 172.868 27.8996 172.868 28.3198V325.199C172.868 325.619 172.528 325.958 172.108 325.958L172.106 325.96Z" fill="#3F3F3F"/>
<path d="M75.7456 11.7931H106.807C108.44 11.7931 109.765 13.1179 109.765 14.7511C109.765 16.3843 108.44 17.7091 106.807 17.7091H75.7456C74.1124 17.7091 72.7876 16.3843 72.7876 14.7511C72.7876 13.1179 74.1124 11.7931 75.7456 11.7931Z" fill="black"/>
<path opacity="0.25" d="M9.92969 201.451L172.868 70.8993V59.4026L9.92969 189.954V201.451Z" fill="white"/>
<path opacity="0.25" d="M9.92969 258.32L172.868 127.768V80.9636L9.92969 211.515V258.32Z" fill="white"/>
<g clip-path="url(#clip1_184_4435)">
<path d="M157.263 247.242H27.5137V170.497L29.4456 170.335L152.698 170.294L157.263 170.497V247.242Z" fill="#A0A0A0"/>
<path d="M27.5137 170.497L84.9949 129.614C89.3689 126.504 95.2463 126.502 99.6224 129.61L157.181 170.497H27.5137Z" fill="#A0A0A0"/>
<path d="M152.936 171.294H31.8394C31.5404 171.294 31.2979 171.052 31.2979 170.755C31.2979 170.458 31.5404 170.217 31.8394 170.217H152.936C153.235 170.217 153.478 170.458 153.478 170.755C153.478 171.052 153.235 171.294 152.936 171.294Z" fill="white"/>
<path d="M145.817 105.997H38.9569C38.532 105.997 38.1875 106.339 38.1875 106.762V244.835C38.1875 245.257 38.532 245.6 38.9569 245.6H145.817C146.242 245.6 146.587 245.257 146.587 244.835V106.762C146.587 106.339 146.242 105.997 145.817 105.997Z" fill="white"/>
<path d="M99.9884 202.486C95.399 199.377 89.231 199.379 84.6437 202.49L82.9481 203.64L38.1875 175.373V243.373H146.587V175.388L101.768 203.692L99.9863 202.486H99.9884Z" fill="#F4F1FE"/>
<path d="M137.847 178.683H46.9712V175.523H137.847V178.683Z" fill="#FAEAE8"/>
<path d="M137.847 182.103H46.9712V185.264H137.847V182.103Z" fill="#FAEAE8"/>
<path d="M90.4856 191.88H46.9712V188.264H90.4856V191.88Z" fill="#FAEAE8"/>
<path d="M137.847 194.89H46.9712V198.051H137.847V194.89Z" fill="#FAEAE8"/>
<path d="M123.466 153.623H61.3101V150.107H123.466V153.623Z" fill="#E30C40" stroke="black" stroke-miterlimit="10"/>
<path d="M137.764 165.896H46.8896V162.736H137.764V165.896Z" fill="#FAEAE8"/>
<path d="M137.766 169.316H46.8896V172.477H137.766V169.316Z" fill="#FAEAE8"/>
<path d="M137.887 230.112H47.0132V226.951H137.887V230.112Z" fill="#E9E3FC"/>
<path d="M137.889 233.532H47.0132V236.692H137.889V233.532Z" fill="#E9E3FC"/>
<path d="M137.805 204.538H46.9292V201.379H137.805V204.538Z" fill="#FAEAE8"/>
<path d="M137.805 207.96H46.9292V211.121H137.805V207.96Z" fill="#E9E3FC"/>
<path d="M137.805 217.325H46.9292V214.165H137.805V217.325Z" fill="#E9E3FC"/>
<path d="M137.805 220.745H46.9292V223.905H137.805V220.745Z" fill="#E9E3FC"/>
<path d="M157.013 246.83L92.961 213.399L157.013 170.963V246.83Z" fill="#D9D9D9" stroke="#A0A0A0" stroke-width="0.5"/>
<path d="M27.7637 246.83V170.963L91.8153 213.399L27.7637 246.83Z" fill="#D9D9D9" stroke="#A0A0A0" stroke-width="0.5"/>
<path d="M99.4776 206.559L156.397 246.992H28.2965L85.1398 206.563C89.4271 203.514 95.1882 203.512 99.4776 206.559Z" fill="#D9D9D9" stroke="#A0A0A0" stroke-width="0.5"/>
<path d="M146.589 118.64H38.1895V138.819H146.589V118.64Z" fill="#E30C40" stroke="black" stroke-width="0.5" stroke-miterlimit="10"/>
</g>
</g>
<defs>
<clipPath id="clip0_184_4435">
<rect width="183.127" height="353.114" fill="white" transform="translate(0.414062 0.0625)"/>
</clipPath>
<clipPath id="clip1_184_4435">
<rect width="129.749" height="141.246" fill="white" transform="translate(27.5137 105.997)"/>
</clipPath>
</defs>
</svg>
