<svg width="560" height="332" viewBox="0 0 560 332" fill="none" xmlns="http://www.w3.org/2000/svg">
<g clip-path="url(#clip0_184_4296)">
<path d="M90.9978 156.035C94.9468 155.237 97.3107 160.388 94.1726 162.984C91.2918 165.365 87.8137 167.052 84.1978 167.837C76.7891 169.443 68.9668 167.644 62.2358 164.106C59.2631 162.543 56.4788 160.659 53.8324 158.575C52.3713 157.424 53.4671 155.028 55.2636 155.45C66.9567 158.188 79.2242 158.415 90.9955 156.035H90.9978Z" fill="#F4F1FE"/>
<path d="M50.2165 152.901C49.0311 158.075 39.0219 153.376 41.6844 150.175C42.771 148.867 45.1051 148.295 46.6856 148.828C48.1811 149.33 50.6323 151.09 50.2165 152.903V152.901Z" fill="#F4F1FE"/>
<path d="M524.166 67.8706C473.231 37.0344 476.419 77.0379 449.169 77.5703C418.036 78.1784 413.805 25.1708 392.932 9.93399C348.383 -22.5865 291.054 37.6609 274.624 61.7667C220.978 140.473 186.197 34.4506 122.762 117.81C107.878 137.37 109.619 177.812 80.4831 175.242C66.8717 174.042 32.4308 156.164 15.5274 201.181C-7.28686 261.945 32.6215 327.548 32.6215 327.548H544.58C544.18 313.277 589.756 107.578 524.166 67.8706Z" fill="#F4F4F4"/>
<path d="M512.213 51.4773C508.391 50.1005 508.432 44.3017 512.28 43.6592C515.813 43.0695 519.588 43.4137 523.109 44.6253C530.325 47.1105 536.498 52.8243 540.985 59.5018C542.965 62.4505 544.649 65.5828 546.126 68.8229C546.941 70.6128 544.982 72.1525 543.567 70.8331C534.359 62.2486 523.608 55.5802 512.213 51.4773Z" fill="#F4F4F4"/>
<path d="M546.973 75.7483C550.162 71.7991 557.068 81.2303 553.39 82.6576C551.887 83.2405 549.588 82.5153 548.409 81.212C547.295 79.9774 545.855 77.132 546.973 75.746V75.7483Z" fill="#F4F4F4"/>
<path d="M65.1165 309.663L67.9812 327.491H64.1792L58.3418 312.414L65.1165 309.663Z" fill="#FFCECE"/>
<path d="M115.57 309.544L118.434 327.371H114.635L108.795 312.295L115.57 309.544Z" fill="#FFCECE"/>
<path d="M65.1165 309.663L58.3418 312.414L61.705 321.098C63.4441 321.111 65.4611 321.107 66.9543 321.086L65.1188 309.663H65.1165Z" fill="#FFAEAE"/>
<path d="M117.417 321.036L115.57 309.544L108.795 312.295L112.179 321.036C113.939 321.059 115.799 321.056 117.417 321.036Z" fill="#FFAEAE"/>
<path d="M118.147 324.491C118.057 324.335 117.876 324.287 117.736 324.379C117.164 324.751 115.787 326.001 114.379 325.012C114.076 324.799 113.623 324.611 113.538 325.161C113.267 326.901 112.119 329.576 112.833 331.46H119.665C120.711 330.311 118.379 324.891 118.149 324.491H118.147Z" fill="#3F3F63"/>
<path d="M56.5064 330.035C57.06 329.351 57.8066 329.051 58.5441 328.831C59.5319 328.535 62.2312 327.704 63.6096 326.864C63.8117 326.742 64.0621 326.729 64.2712 326.834C65.8379 327.626 67.1359 326.839 67.5287 326.352C67.7079 326.13 68.0341 326.217 68.0847 326.506C68.0984 326.586 68.1076 326.671 68.1076 326.754C68.1076 326.949 68.7853 331.458 68.7853 331.458H56.3616C56.3616 331.458 56.1641 330.451 56.5018 330.033L56.5064 330.035Z" fill="#3F3F63"/>
<path d="M161.441 134.975C161.857 134.74 162.165 134.3 162.078 133.841C161.869 132.751 160.205 133.033 159.22 132.517C159.875 132.928 160.623 131.838 160.244 131.165C159.865 130.493 158.999 130.298 158.232 130.208C155.448 129.878 152.569 130.013 149.923 130.945C149.652 131.041 149.335 131.14 149.089 130.991C148.806 130.817 148.788 130.42 148.82 130.089C148.928 128.958 149.238 127.845 149.73 126.819C149.962 126.335 150.242 125.816 150.127 125.293C150.047 124.928 149.624 124.602 149.245 124.667C148.809 124.74 148.508 125.254 148.264 125.575C147.607 126.441 147.072 127.388 146.569 128.35C145.654 130.091 144.834 131.909 143.568 133.432C142.427 134.809 140.966 135.883 139.488 136.893C134.179 140.521 128.441 143.497 123.18 147.194C117.919 150.893 113.044 155.459 110.354 161.295C109.725 162.662 109.215 164.115 109.167 165.618C109.121 167.121 109.585 168.693 110.669 169.737C111.792 170.818 113.451 171.212 115.004 171.072C116.557 170.932 118.027 170.311 119.406 169.585C123.375 167.5 126.801 164.516 129.973 161.35C134.575 156.758 138.742 151.707 142.112 146.152C143.359 144.096 144.554 141.907 146.488 140.473C149.737 138.063 154.191 138.366 158.211 138.825C158.659 138.875 159.137 138.924 159.537 138.715C159.937 138.508 160.178 137.939 159.891 137.593C159.755 137.428 159.539 137.354 159.335 137.294C158.639 137.088 157.924 136.939 157.201 136.856C158.179 136.895 159.16 136.93 160.139 136.959C160.541 136.971 161 136.959 161.26 136.654C161.591 136.266 161.365 135.622 160.94 135.342C160.515 135.059 159.973 135.041 159.463 135.032C160.022 135.149 160.607 135.264 161.154 135.103C161.253 135.073 161.349 135.034 161.439 134.981L161.441 134.975Z" fill="#FFCECE"/>
<path d="M159.716 132.921C159.704 132.921 159.691 132.921 159.679 132.918C159.638 132.912 155.578 132.317 154.322 132.473C154.184 132.489 154.058 132.393 154.039 132.255C154.021 132.118 154.12 131.991 154.258 131.973C155.581 131.808 159.58 132.395 159.75 132.418C159.888 132.439 159.982 132.567 159.964 132.705C159.946 132.831 159.838 132.921 159.714 132.921H159.716Z" fill="#FFAEAE"/>
<path d="M159.93 135.381C159.909 135.381 159.886 135.378 159.865 135.371C157.768 134.823 155.76 134.543 153.902 134.543C153.761 134.543 153.649 134.431 153.649 134.291C153.649 134.151 153.761 134.038 153.902 134.038C155.804 134.038 157.853 134.323 159.994 134.883C160.13 134.917 160.21 135.055 160.173 135.19C160.143 135.303 160.042 135.378 159.93 135.378V135.381Z" fill="#FFAEAE"/>
<path d="M158.308 137.249C158.297 137.249 158.283 137.249 158.271 137.246C158.237 137.242 154.864 136.744 153.812 136.744C153.672 136.744 153.56 136.631 153.56 136.491C153.56 136.351 153.672 136.239 153.812 136.239C154.901 136.239 158.205 136.725 158.345 136.746C158.483 136.767 158.577 136.895 158.558 137.033C158.54 137.159 158.432 137.249 158.31 137.249H158.308Z" fill="#FFAEAE"/>
<path d="M28.4815 127.393C32.1181 126.287 35.4262 124.238 38.0382 121.477C38.5735 120.912 38.7619 120.116 38.2174 119.467C37.7626 118.923 36.7403 118.721 36.205 119.288C33.7377 121.895 30.7329 123.751 27.2984 124.795C26.5518 125.022 26.3014 126.048 26.5909 126.686C26.947 127.464 27.7395 127.62 28.4838 127.393H28.4815Z" fill="#FFAEAE"/>
<path d="M82.2107 135.515C84.3126 134.821 85.7096 133.331 85.3309 132.188C84.9522 131.045 82.9414 130.681 80.8395 131.376C78.7376 132.071 77.3407 133.561 77.7193 134.704C78.098 135.847 80.1089 136.21 82.2107 135.515Z" fill="#263238"/>
<path d="M79.9384 136.035C79.642 136.035 79.3572 136.012 79.0884 135.963C78.1787 135.798 77.5676 135.374 77.3654 134.761C77.3379 134.676 77.3838 134.587 77.4665 134.559C77.5515 134.532 77.6411 134.577 77.6687 134.66C77.8318 135.153 78.3556 135.505 79.1435 135.647C79.966 135.796 80.9653 135.697 81.9554 135.369C82.9478 135.041 83.807 134.525 84.379 133.917C84.9258 133.334 85.1371 132.739 84.974 132.246C84.9465 132.161 84.9924 132.072 85.0751 132.044C85.1601 132.017 85.2497 132.062 85.2773 132.145C85.4794 132.755 85.2428 133.462 84.6111 134.137C84.0046 134.784 83.0949 135.33 82.0542 135.674C81.3328 135.913 80.6023 136.035 79.9338 136.035H79.9384Z" fill="#3F3F63"/>
<path d="M84.9902 173.865C84.9902 173.865 100.375 154.539 107.095 154.124C107.524 154.096 107.938 153.958 108.225 154.28C112.305 158.832 103.941 181.135 100.768 179.157C96.2607 177.86 84.9902 173.867 84.9902 173.867V173.865Z" fill="#5B5B5B"/>
<path d="M73.8805 161.35C100.228 162.628 132.656 141.783 127.313 161.003C124.195 172.215 95.2658 179.941 82.5251 175.767C78.1764 174.342 66.9381 161.012 73.8805 161.347V161.35Z" fill="#FFCECE"/>
<path d="M117.775 168.628C107.037 173.723 90.2485 175.513 81.6039 172.068C79.0562 171.054 74.31 165.618 72.3987 161.588C68.9665 163.385 78.5806 174.475 82.5251 175.767C91.3673 178.663 108.011 175.827 118.409 170.072C123.931 167.623 130.688 161.198 136.008 154.707C130.341 160.742 123.341 166.563 117.772 168.626L117.775 168.628Z" fill="#FFAEAE"/>
<path d="M24.3881 146.884C19.573 149.732 18.5369 168.47 23.0625 171.566C23.4301 171.816 23.8804 171.77 24.2847 171.584C32.0587 168.036 40.4552 156.655 40.4552 156.655C40.4552 156.655 29.8763 145.087 24.3858 146.884H24.3881Z" fill="#5B5B5B"/>
<path d="M56.7706 143.811C56.7706 143.811 62.8423 147.469 64.6388 139.626C65.1052 137.59 73.9129 138.811 73.1755 140.764C69.1943 151.315 75.3901 152.237 75.3901 152.237L67.8803 167.052C67.8803 167.052 48.9093 150.549 48.8014 150.225C48.6934 149.901 56.7729 143.811 56.7729 143.811H56.7706Z" fill="#FFCECE"/>
<path d="M71.781 123.409C72.4013 121.287 71.9648 119.292 70.807 118.955C69.6491 118.618 68.211 120.066 67.5908 122.191C66.9705 124.313 67.407 126.307 68.5648 126.645C69.7204 126.982 71.1608 125.534 71.781 123.411V123.409Z" fill="#263238"/>
<path d="M71.8659 147.559C71.7442 145.922 72.0589 143.722 73.1754 140.764C73.3546 140.085 72.5 139.504 71.2686 139.107C68.8335 138.355 64.9465 138.29 64.641 139.624C64.4939 140.268 64.1172 140.796 64.1172 141.333C64.1172 144.631 68.9599 147.32 71.8682 147.556L71.8659 147.559Z" fill="#FFAEAE"/>
<path d="M68.3097 126.016C68.5188 123.935 67.8204 122.161 66.7545 122.055C65.6862 121.95 64.6524 123.549 64.4457 125.63C64.2366 127.712 64.935 129.485 66.0009 129.591C67.0692 129.697 68.103 128.097 68.3097 126.016Z" fill="#263238"/>
<path d="M68.5648 126.934C68.551 126.934 68.5349 126.934 68.5188 126.927C67.9009 126.748 67.4506 126.151 67.2553 125.25C67.067 124.382 67.1313 123.327 67.4368 122.273C67.7447 121.222 68.2569 120.295 68.8841 119.667C69.5342 119.013 70.2326 118.751 70.8529 118.93C70.9379 118.955 70.9861 119.045 70.9609 119.13C70.9356 119.214 70.846 119.263 70.761 119.237C70.2602 119.093 69.6744 119.325 69.1092 119.891C68.5211 120.483 68.0364 121.362 67.7424 122.363C67.1497 124.398 67.5356 126.305 68.6061 126.617C68.6911 126.642 68.7394 126.732 68.7141 126.817C68.6934 126.886 68.6291 126.932 68.5602 126.932L68.5648 126.934Z" fill="#8383B7"/>
<path d="M66.001 129.88C66.001 129.88 65.9895 129.88 65.9849 129.88C65.406 129.823 64.912 129.346 64.595 128.54C64.2918 127.769 64.1815 126.775 64.2849 125.745C64.5054 123.542 65.5966 121.908 66.7705 122.025C66.8578 122.035 66.9222 122.113 66.9153 122.2C66.9061 122.287 66.828 122.351 66.7407 122.342C65.7804 122.246 64.8018 123.818 64.6065 125.775C64.5077 126.757 64.6111 127.698 64.896 128.421C65.167 129.109 65.5645 129.515 66.0193 129.559C66.1066 129.568 66.1709 129.646 66.1641 129.733C66.1549 129.816 66.0859 129.878 66.0055 129.878L66.001 129.88Z" fill="#8383B7"/>
<path d="M66.2974 129.479C66.3548 130.789 65.622 131.886 64.6572 131.929C63.6923 131.973 62.8653 130.943 62.8078 129.632C62.7504 128.322 63.4832 127.225 64.4481 127.182C65.4107 127.14 66.24 128.168 66.2974 129.479Z" fill="#FFCECE"/>
<path d="M78.0536 123.459C79.2884 120.434 78.6941 117.332 76.7262 116.53C74.7583 115.729 72.162 117.532 70.9272 120.557C69.6924 123.583 70.2867 126.685 72.2546 127.486C74.2225 128.288 76.8188 126.485 78.0536 123.459Z" fill="#263238"/>
<path d="M72.1899 127.767C72.1692 127.767 72.1485 127.762 72.1301 127.755C71.1262 127.347 70.4301 126.372 70.1682 125.006C69.9109 123.668 70.1062 122.108 70.715 120.616C71.3238 119.125 72.2749 117.874 73.3959 117.096C74.5377 116.305 75.7185 116.091 76.7224 116.5C76.8051 116.534 76.8441 116.626 76.8097 116.709C76.7752 116.791 76.6833 116.83 76.6006 116.796C75.7001 116.429 74.6273 116.628 73.5774 117.358C72.5069 118.101 71.5949 119.302 71.009 120.736C70.4232 122.17 70.2349 123.666 70.4807 124.944C70.7219 126.197 71.349 127.09 72.2496 127.457C72.3323 127.491 72.3713 127.583 72.3369 127.666C72.3116 127.728 72.2519 127.764 72.1876 127.764L72.1899 127.767Z" fill="#8383B7"/>
<path d="M82.9588 124.907C84.9542 122.061 85.1698 118.773 83.4404 117.563C81.711 116.354 78.6915 117.681 76.696 120.527C74.7006 123.374 74.485 126.662 76.2144 127.871C77.9438 129.081 80.9633 127.754 82.9588 124.907Z" fill="#263238"/>
<path d="M83.7557 131.349C86.5093 129.469 87.7755 126.533 86.584 124.793C85.3924 123.052 82.1943 123.165 79.4408 125.045C76.6873 126.926 75.421 129.861 76.6126 131.602C77.8041 133.343 81.0022 133.23 83.7557 131.349Z" fill="#263238"/>
<path d="M79.2057 133.003C77.8962 133.003 76.8648 132.544 76.2858 131.698C76.2353 131.624 76.2537 131.525 76.3272 131.475C76.4007 131.425 76.4995 131.443 76.55 131.516C77.0945 132.31 78.1053 132.723 79.3987 132.677C80.7173 132.632 82.1646 132.113 83.4717 131.22C84.7789 130.328 85.7874 129.169 86.3089 127.957C86.8212 126.771 86.8028 125.681 86.2583 124.885C86.2078 124.811 86.2262 124.713 86.2997 124.662C86.3732 124.612 86.472 124.63 86.5225 124.703C87.1313 125.591 87.1589 126.794 86.6029 128.083C86.0562 129.35 85.0086 130.557 83.6532 131.484C82.2955 132.411 80.7908 132.948 79.4101 132.996C79.3412 132.999 79.2746 133.001 79.2057 133.001V133.003Z" fill="#3F3F63"/>
<path d="M77.6622 128.602C77.0603 128.602 76.5159 128.441 76.061 128.125C75.9875 128.074 75.9714 127.973 76.022 127.902C76.0725 127.829 76.1736 127.813 76.2448 127.863C77.0328 128.414 78.14 128.423 79.3599 127.886C80.6073 127.338 81.8157 126.291 82.7645 124.937C84.7057 122.168 84.94 118.973 83.286 117.817C83.2124 117.766 83.1964 117.666 83.2469 117.594C83.2974 117.521 83.3985 117.505 83.4697 117.555C84.3542 118.173 84.7884 119.311 84.6942 120.754C84.6023 122.17 84.0096 123.721 83.0287 125.121C82.0477 126.521 80.7911 127.608 79.4908 128.18C78.8476 128.462 78.2296 128.604 77.6645 128.604L77.6622 128.602Z" fill="#3F3F63"/>
<path d="M79.8927 138.584C81 137.88 81.4778 136.647 80.9586 135.835C80.4394 135.023 79.1231 134.935 78.0135 135.642C76.9062 136.347 76.4284 137.579 76.9476 138.391C77.4668 139.204 78.7831 139.291 79.8927 138.584Z" fill="#FFAEAE"/>
<path d="M76.1503 128.155C76.1181 128.155 76.086 128.145 76.0584 128.125C75.1739 127.508 74.7397 126.369 74.8339 124.926C74.9258 123.51 75.5185 121.959 76.4995 120.559C77.4804 119.159 78.737 118.072 80.0373 117.5C81.3651 116.917 82.5827 116.936 83.4671 117.555C83.5406 117.606 83.5567 117.707 83.5062 117.778C83.4556 117.851 83.3546 117.867 83.2833 117.817C82.4954 117.266 81.3881 117.257 80.1682 117.794C78.9208 118.342 77.7124 119.389 76.7637 120.743C75.8149 122.097 75.2429 123.588 75.1556 124.947C75.0683 126.275 75.4542 127.312 76.2445 127.863C76.318 127.914 76.3341 128.015 76.2835 128.086C76.2514 128.129 76.2031 128.155 76.1526 128.155H76.1503Z" fill="#8383B7"/>
<path d="M80.0672 133.446C82.3025 128.375 76.2216 122.131 71.055 123.31C66.4214 124.368 63.8507 131.131 63.1684 135.404C62.4241 140.064 64.7811 144.816 70.0924 143.625C75.151 142.492 78.0801 137.953 80.0672 133.446Z" fill="#FFCECE"/>
<path d="M47.8662 146.313C25.6951 154.158 -7.66366 142.473 2.21694 159.984C7.98082 170.2 34.7212 169.895 44.4616 162.614C47.7858 160.129 53.7105 144.245 47.8685 146.313H47.8662Z" fill="#FFCECE"/>
<path d="M47.4437 151.719C48.7347 151.455 49.3849 151.921 49.5778 152.836C50.7678 148.777 50.8092 145.271 47.8686 146.31C35.02 150.856 18.4129 148.844 8.64258 149.757C18.491 150.321 34.3262 154.404 47.4437 151.719Z" fill="#FFAEAE"/>
<path d="M102.236 175.74C100.878 170.776 101.763 160.969 110.18 155.032C99.7066 157.752 86.1366 161.944 73.8829 161.35C66.9405 161.012 78.1788 174.345 82.5276 175.77C87.4759 177.39 94.8663 177.215 102.236 175.74Z" fill="#FFAEAE"/>
<path d="M80.3729 204.043C80.111 202.914 71.5421 201.057 58.3971 204.098C45.252 207.138 35.4013 215.227 36.8578 218.043C37.8456 219.954 46.2008 211.225 59.3458 208.184C72.4909 205.144 80.637 205.172 80.3752 204.045L80.3729 204.043Z" fill="#5B5B5B"/>
<path d="M40.2372 219.548C40.2372 219.548 39.3596 210.282 37.4023 201.863C42.9985 193.749 67.7219 195.543 76.4469 196.197C75.7922 199.465 80.2512 208.35 80.2512 208.35L65.4108 221.999L40.2372 219.548Z" fill="#FFAEAE"/>
<path d="M49.6697 152.513C49.6146 152.01 49.587 151.489 49.587 150.955C49.587 149.897 49.7478 148.348 49.9936 146.815C49.6284 146.163 48.9484 145.929 47.8664 146.313C40.028 149.085 30.7953 149.42 22.5664 149.463C27.1311 156.595 26.2099 163.649 23.9356 167.887C31.9117 167.835 39.9844 165.962 44.4618 162.614C46.1572 161.347 48.5303 156.593 49.672 152.513H49.6697Z" fill="#FFAEAE"/>
<path d="M101.731 179.106C100.509 180.038 84.956 178.005 84.956 178.005C84.956 178.005 79.6539 193.687 80.3821 204.072C79.0727 200.697 34.5192 210.05 36.8601 218.04C31.8704 184.896 35.9504 170.561 35.9504 170.561C35.9504 170.561 31.0135 169.225 24.2871 171.584C28.4314 169.569 29.8465 145.328 24.3882 146.884C28.9207 144.966 47.9927 143.341 54.4251 143.44C54.2161 144.185 54.0162 145.094 53.8462 146.044C53.5292 147.813 53.3087 149.718 53.3087 150.952C53.3087 152.341 53.4947 153.619 53.8508 154.778C54.9719 158.424 57.77 160.868 61.7144 161.673C62.6517 161.864 63.6556 161.962 64.7147 161.962C67.0854 161.962 69.4356 161.173 71.5146 159.879C74.2139 158.201 76.4538 155.675 77.6759 152.937C84.6505 153.433 97.4095 154.362 107.632 154.071C99.0475 156.072 100.116 179.721 101.733 179.104L101.731 179.106Z" fill="#E30C40"/>
<path d="M77.6734 152.94C76.4536 155.679 74.2114 158.204 71.5121 159.881C69.4331 161.173 67.0806 161.965 64.7122 161.965C63.6508 161.965 62.6492 161.866 61.7119 161.676C57.7675 160.87 54.9694 158.426 53.8483 154.78C53.4922 153.621 53.3062 152.341 53.3062 150.955C53.3062 149.72 53.5244 147.813 53.8437 146.046C54.0137 145.096 54.2136 144.185 54.4226 143.442C55.8975 143.084 56.7705 143.814 56.7705 143.814C56.7705 143.814 52.8421 154.941 60.9975 158.47C69.2033 162.02 75.3876 152.24 75.3876 152.24C75.3876 152.24 76.5431 152.056 77.6734 152.942V152.94Z" fill="white"/>
<path d="M3.25069 159.716C13.5081 165.17 35.8951 126.888 32.0402 122.7C28.8952 119.283 10.1977 134.823 4.99203 142.616C2.59367 146.205 -2.88994 156.453 3.25069 159.718V159.716Z" fill="#FFCECE"/>
<path d="M5.24478 146.815C7.56733 141.833 14.0778 133.508 19.7935 128.065C13.9262 132.54 7.67301 138.602 4.99208 142.613C2.6925 146.058 -3.02543 154.546 3.21169 161.412C1.62886 154.69 4.03871 149.403 5.24478 146.815Z" fill="#FFE0E0"/>
<path d="M14.22 155.654C14.1511 155.654 14.0845 155.627 14.0339 155.574C13.9375 155.471 13.942 155.31 14.0431 155.211C18.5619 150.941 23.7882 143.77 27.6867 136.498C31.3623 129.637 33.037 124.159 31.8516 122.872C31.7552 122.769 31.7621 122.606 31.8677 122.51C31.9711 122.413 32.1342 122.42 32.2307 122.526C32.9589 123.317 32.9038 125.096 32.0676 127.81C31.3095 130.273 29.9518 133.361 28.1415 136.739C26.3014 140.174 24.1167 143.676 21.824 146.866C19.3338 150.333 16.7654 153.346 14.3992 155.583C14.3487 155.629 14.2866 155.654 14.2223 155.654H14.22Z" fill="#FFAEAE"/>
<path d="M38.6862 118.834L30.3838 127.276C29.4488 128.226 27.9717 128.375 26.8667 127.629C25.7778 126.895 25.3551 125.495 25.8605 124.281L30.138 114.572L38.6862 118.831V118.834Z" fill="#E30C40" stroke="black" stroke-miterlimit="10"/>
<path d="M43.5305 117.175C44.7363 115.39 44.0955 112.853 42.0993 111.507C40.1031 110.162 37.5075 110.518 36.3018 112.303C35.0961 114.088 35.7369 116.625 37.733 117.971C39.7292 119.316 42.3248 118.96 43.5305 117.175Z" fill="#E30C40" stroke="black" stroke-miterlimit="10"/>
<path d="M38.1669 104.778L43.7654 109.393C44.7073 110.169 44.8313 111.564 44.0456 112.493L38.6861 118.833C37.9096 119.751 36.5381 119.873 35.6123 119.107L30.1356 114.575L28.9893 106.745L38.1669 104.778Z" fill="#E30C40" stroke="black" stroke-miterlimit="10"/>
<path d="M36.8347 116.75C35.6539 115.784 34.4731 114.818 33.2923 113.852C33.1177 113.709 33.313 113.416 33.4899 113.56C34.6707 114.526 35.8515 115.492 37.0323 116.458C37.2069 116.601 37.0116 116.892 36.8347 116.75Z" fill="white"/>
<path d="M41.0296 111.238C39.8488 110.272 38.6679 109.306 37.4871 108.34C37.3126 108.198 37.5078 107.906 37.6847 108.048C38.8655 109.014 40.0463 109.981 41.2271 110.947C41.4017 111.089 41.2064 111.38 41.0296 111.238Z" fill="white"/>
<path d="M39.6926 113.101C38.5118 112.135 37.331 111.169 36.1502 110.203C35.9756 110.061 36.1709 109.769 36.3478 109.912C37.5286 110.878 38.7094 111.844 39.8902 112.81C40.0648 112.952 39.8695 113.244 39.6926 113.101Z" fill="white"/>
<path d="M38.2337 114.91C37.0529 113.943 35.8721 112.977 34.6912 112.011C34.5167 111.869 34.7119 111.578 34.8888 111.72L38.4312 114.618C38.6058 114.76 38.4105 115.052 38.2337 114.91Z" fill="white"/>
<path d="M23.0806 98.6608C18.5872 104.097 13.6457 107.433 12.0422 106.112C10.4387 104.79 12.7796 99.3102 17.2731 93.8718C21.7666 88.4356 26.708 85.0991 28.3115 86.4209C29.915 87.7426 27.5741 93.2224 23.0806 98.6608Z" fill="#FFDA00"/>
<path d="M19.6506 95.8865C18.3227 97.3597 19.283 100.382 21.7939 102.64C24.3049 104.898 27.4154 105.533 28.7409 104.06C30.0687 102.587 29.1085 99.5649 26.5975 97.3069C24.0866 95.0489 20.9761 94.4133 19.6506 95.8865Z" fill="#FFB000"/>
<path d="M34.5349 101.281C31.8839 98.709 30.0966 95.3794 29.4189 91.7492L28.7894 87.3961C29.0835 89.5485 26.8344 94.1196 23.0807 98.6608C19.1248 103.45 14.8196 106.605 12.7544 106.389L17.6292 107.197C20.3791 107.75 22.9612 108.943 25.1643 110.678L30.1126 114.575L38.1439 104.778L34.5395 101.279L34.5349 101.281Z" fill="#FFC400"/>
<path d="M27.687 117.275C28.1372 116.711 28.9206 116.596 29.4375 117.023L36.0192 122.445C36.4281 122.783 36.4695 123.416 36.1134 123.861C35.7711 124.29 35.183 124.387 34.7741 124.095L27.8639 119.109C27.2987 118.703 27.2183 117.863 27.6847 117.275H27.687Z" fill="#FFCECE"/>
<path d="M27.7283 118.98L35.3484 124.465C35.7251 124.735 35.8331 125.279 35.5689 125.706C35.2887 126.16 34.7235 126.305 34.3169 126.05L26.3407 121.052C25.7664 120.692 25.6562 119.878 26.1018 119.299L26.1179 119.279C26.5222 118.753 27.2321 118.622 27.7306 118.98H27.7283Z" fill="#FFCECE"/>
<path d="M25.1186 121.41C25.4954 120.924 26.1478 120.786 26.628 121.096L34.1056 125.933C34.4984 126.188 34.5949 126.736 34.3192 127.161C34.0551 127.569 33.5428 127.709 33.1545 127.494L25.3782 123.141C24.7924 122.813 24.6615 122 25.1049 121.427L25.1209 121.406L25.1186 121.41Z" fill="#FFCECE"/>
<path d="M25.0958 122.627L31.3123 126.307C31.6247 126.491 31.7373 126.909 31.5489 127.25C31.3582 127.599 30.9424 127.737 30.6231 127.574L24.1608 124.286C23.7037 124.054 23.5658 123.453 23.8622 122.987L23.8737 122.971C24.1493 122.539 24.6915 122.386 25.1004 122.627H25.0958Z" fill="#FFCECE"/>
<path d="M28.3903 119.297C28.3903 119.297 28.3972 119.288 28.3995 119.283C28.4615 119.198 28.5764 119.175 28.6545 119.233L35.1948 124.038C35.2729 124.095 35.2867 124.212 35.2247 124.299C35.1627 124.384 35.0478 124.407 34.9697 124.35L28.4293 119.545C28.3535 119.49 28.3375 119.382 28.3903 119.297Z" fill="#FFAEAE"/>
<path d="M26.9453 121.339C26.9453 121.339 26.9499 121.332 26.9499 121.33C27.0074 121.241 27.1199 121.209 27.2026 121.261L33.9452 125.461C34.0279 125.513 34.0508 125.628 33.9934 125.718C33.936 125.807 33.8234 125.839 33.7407 125.786L26.9982 121.587C26.9178 121.537 26.8948 121.429 26.943 121.339H26.9453Z" fill="#FFAEAE"/>
<path d="M26.1641 123.207C26.1641 123.207 26.1687 123.2 26.171 123.196C26.2261 123.106 26.3387 123.074 26.4237 123.125L31.6477 126.3C31.7327 126.351 31.7557 126.466 31.6982 126.557C31.6431 126.647 31.5305 126.679 31.4455 126.629L26.2215 123.453C26.1411 123.405 26.1158 123.297 26.1641 123.21V123.207Z" fill="#FFAEAE"/>
<path d="M80.2533 208.352C73.7038 208.352 69.4423 208.616 62.4517 209.997C57.5378 211.018 50.1612 213.77 44.5007 216.879C44.2733 217.003 44.0505 217.129 43.8299 217.253C42.5067 218.006 41.2891 218.777 40.2393 219.546C37.4044 253.161 58.08 317.816 59.4698 319.725C61.7947 319.787 66.1985 319.773 68.0869 319.725C66.9543 301.921 67.1634 283.462 60.3221 266.977C63.7473 254.26 63.6049 238.617 64.1034 235.111L89.8973 276.702C97.7448 299.518 108.797 318.158 110.019 319.725C112.879 319.796 116.367 319.78 118.689 319.725C119.93 303.185 85.2821 214.74 80.2533 208.347V208.352Z" fill="#263238"/>
<path d="M453.768 181.924C455.167 184.524 459.187 186.112 462.024 187.018C465.58 188.154 469.513 187.72 472.966 186.316C476.058 185.061 483.067 181.915 485.525 179.65C482.509 172.369 478.781 165.152 479.24 157.254C479.725 148.91 480.037 141.028 478.477 132.811C477.703 128.742 475.845 123.852 471.866 122.705C470.193 122.223 468.362 122.514 466.853 123.363C465.39 122.556 463.623 122.246 461.969 122.519C459.169 122.982 456.747 124.901 455.24 127.306C453.733 129.708 453.06 132.556 452.821 135.388C452.178 143.063 454.436 150.732 455.757 158.314C457.223 166.735 456.061 173.805 453.77 181.919L453.768 181.924Z" fill="#3F3F63"/>
<path d="M451.632 181.58C453.031 184.18 457.051 185.768 459.888 186.674C463.444 187.81 467.377 187.376 470.83 185.972C473.922 184.717 480.931 181.571 483.389 179.306C480.373 172.025 476.644 164.808 477.104 156.909C477.589 148.566 477.901 140.684 476.341 132.466C475.567 128.398 473.708 123.508 469.73 122.36C468.057 121.879 466.226 122.17 464.717 123.019C463.254 122.211 461.487 121.902 459.833 122.175C457.032 122.638 454.611 124.556 453.104 126.961C451.597 129.364 450.924 132.212 450.685 135.043C450.042 142.719 452.3 150.388 453.621 157.97C455.087 166.391 453.924 173.461 451.634 181.575L451.632 181.58Z" fill="#8C8C8C"/>
<path d="M452.642 181.128C454.041 183.728 458.062 185.316 460.899 186.222C464.455 187.358 468.388 186.924 471.841 185.52C474.933 184.265 481.942 181.119 484.4 178.854C481.384 171.573 477.655 164.356 478.115 156.457C478.599 148.114 478.912 140.232 477.352 132.014C476.578 127.946 474.719 123.056 470.74 121.908C469.068 121.427 467.237 121.718 465.728 122.567C464.264 121.759 462.498 121.449 460.844 121.723C458.043 122.186 455.622 124.104 454.115 126.509C452.608 128.912 451.935 131.76 451.696 134.591C451.053 142.267 453.311 149.936 454.632 157.518C456.097 165.939 454.935 173.009 452.645 181.123L452.642 181.128Z" fill="#5B5B5B"/>
<path d="M504.207 140.177C507.23 142.097 511.799 146.538 510.513 148.002C509.259 149.429 505.082 150.79 499.743 146.971C494.404 143.155 494.345 139.192 495.479 137.609C496.614 136.025 501.053 138.171 504.207 140.174V140.177Z" fill="black"/>
<path d="M471.452 302.465C471.452 302.465 470.63 306.79 470.777 314.296H470.752L469.426 317.231C469.426 317.231 474.149 325.572 474.303 325.779C474.457 325.985 479.079 326.327 479.079 326.327L478.625 324.801L478.459 324.491L478.186 324.209C476.773 322.748 476.323 320.607 477.021 318.7C479.222 312.701 482.847 302.703 482.847 302.703L479.183 291.907L471.452 302.465Z" fill="#FFCECE"/>
<path d="M473.699 326.894C473.987 327.357 474.395 327.897 474.938 328.055L479.987 329.542C480.683 329.746 481.425 329.693 482.052 329.372C482.204 329.294 482.399 329.143 482.588 328.982C482.948 328.67 483.049 327.697 482.659 327.39C481.402 326.398 478.855 324.432 478.459 324.491C476.959 324.994 475.252 324.361 474.464 323.009L473.196 320.831C472.526 319.682 472.004 318.463 471.641 317.206L470.754 314.294L469.677 314.608C467.853 315.14 466.782 316.878 467.173 318.67L467.423 319.812L467.655 321.173L467.095 325.93L467.871 326.16L469.323 321.235C469.364 321.095 469.518 321.019 469.67 321.063L469.904 321.132C470.251 321.235 470.497 321.442 470.681 321.74L473.702 326.892L473.699 326.894Z" fill="#3F3F63"/>
<path d="M487.692 162.135C498.078 168.046 522.33 129.231 518.397 124.887C513.16 119.097 493.952 140.831 488.386 148.708C485.822 152.336 481.473 158.596 487.692 162.135Z" fill="#FFCECE"/>
<path d="M511.91 117.521C511.315 117.055 510.667 116.654 510.019 116.263C509.135 115.731 508.234 115.224 507.334 114.719C506.254 114.113 505.17 113.514 504.09 112.906C502.895 112.232 501.703 111.55 500.527 110.846C499.293 110.109 498.076 109.35 496.879 108.556C495.686 107.764 494.515 106.936 493.385 106.057C492.755 105.568 491.538 104.466 490.559 103.546C489.723 102.761 488.429 102.725 487.55 103.461L487.501 103.503C486.516 104.326 486.412 105.802 487.272 106.754C491.901 111.887 505.409 126.606 507.821 128.081C511.064 130.066 516.803 133.003 518.675 126.952C519.803 123.308 514.223 119.331 511.908 117.516L511.91 117.521Z" fill="#FFCECE"/>
<path d="M511.91 117.521C511.315 117.055 510.667 116.654 510.019 116.263C509.135 115.731 508.234 115.224 507.334 114.719C506.254 114.113 505.17 113.514 504.09 112.906C502.895 112.232 501.703 111.55 500.527 110.846C499.293 110.109 498.076 109.35 496.879 108.556C495.686 107.764 494.515 106.936 493.385 106.057C492.755 105.568 491.538 104.466 490.559 103.546C489.723 102.761 488.429 102.725 487.55 103.461L487.501 103.503C486.516 104.326 486.412 105.802 487.272 106.754C491.901 111.887 505.409 126.606 507.821 128.081C511.064 130.066 516.803 133.003 518.675 126.952C519.803 123.308 514.223 119.331 511.908 117.516L511.91 117.521Z" fill="#FFCECE"/>
<path d="M463.157 157.061C452.76 151.173 428.588 190.036 432.527 194.373C437.777 200.151 456.938 178.379 462.491 170.49C465.048 166.857 469.383 160.586 463.157 157.061Z" fill="#FFCECE"/>
<path d="M489.868 96.119L481.622 107.194L487.391 111.481L495.638 100.405L489.868 96.119Z" fill="#FFC400"/>
<path d="M487.372 111.501C488.098 110.526 487.395 108.776 485.801 107.592C484.208 106.409 482.328 106.24 481.602 107.215C480.876 108.19 481.579 109.94 483.172 111.124C484.765 112.308 486.645 112.477 487.372 111.501Z" fill="#FFC400"/>
<path d="M505.633 89.521L496.984 83.0958C496.984 83.0958 487.655 95.6088 487.618 95.6616C486.529 97.1233 487.584 99.7485 489.973 101.522C492.328 103.271 495.098 103.542 496.219 102.149L505.636 89.5233L505.633 89.521Z" fill="#FFC400"/>
<path d="M503.336 83.603C505.726 85.3768 506.778 88.0019 505.691 89.4637C504.602 90.9254 501.783 90.673 499.394 88.8992C497.005 87.1254 495.953 84.5002 497.04 83.0385C498.126 81.5768 500.947 81.8292 503.336 83.603Z" fill="#FFC400"/>
<path d="M502.502 84.7985C504.453 86.2465 505.314 88.3897 504.425 89.5853C503.536 90.7785 501.234 90.572 499.284 89.124C497.333 87.6761 496.472 85.5328 497.361 84.3373C498.25 83.144 500.552 83.3505 502.502 84.7985Z" fill="white"/>
<path d="M483.491 106.586L477.762 114.281L481.771 117.26L487.5 109.565L483.491 106.586Z" fill="#FFC400"/>
<path d="M480.655 114.545C481.762 115.366 482.252 116.582 481.746 117.262C481.241 117.939 479.936 117.822 478.829 117C477.721 116.179 477.232 114.962 477.737 114.283C478.243 113.606 479.548 113.723 480.655 114.545Z" fill="#FFC400"/>
<path d="M478.533 115.154L475.46 119.28L477.61 120.877L480.682 116.751L478.533 115.154Z" fill="#FFC400"/>
<path d="M477.007 119.414C477.6 119.855 477.865 120.507 477.593 120.872C477.322 121.234 476.621 121.172 476.029 120.732C475.436 120.291 475.171 119.639 475.443 119.274C475.714 118.909 476.415 118.973 477.007 119.414Z" fill="#FFC400"/>
<path d="M485.921 107.587L486.24 107.668C486.346 107.693 486.449 107.725 486.557 107.741C486.771 107.782 486.982 107.826 487.198 107.849C487.625 107.911 488.055 107.929 488.48 107.929C488.905 107.929 489.328 107.888 489.739 107.826C489.945 107.794 490.148 107.752 490.345 107.707C490.442 107.681 490.54 107.658 490.632 107.629C490.681 107.615 490.724 107.601 490.766 107.587C490.786 107.58 490.809 107.573 490.825 107.567C490.841 107.56 490.867 107.551 490.86 107.551C491.565 107.374 492.279 107.798 492.456 108.503C492.633 109.207 492.208 109.921 491.503 110.098C491.436 110.111 491.407 110.114 491.365 110.118C491.324 110.125 491.289 110.127 491.253 110.132C491.179 110.141 491.108 110.146 491.039 110.15C490.899 110.162 490.763 110.164 490.625 110.169C490.354 110.171 490.088 110.169 489.824 110.15C489.295 110.118 488.774 110.052 488.266 109.944C487.756 109.836 487.255 109.703 486.773 109.522C486.529 109.439 486.295 109.336 486.058 109.235C485.941 109.187 485.826 109.127 485.712 109.072L485.372 108.902C485.02 108.725 484.878 108.299 485.055 107.945C485.208 107.64 485.551 107.493 485.868 107.573L485.921 107.587Z" fill="#FFCECE"/>
<path d="M484.42 104.207C484.459 104.244 484.496 104.285 484.533 104.324C484.577 104.365 484.629 104.404 484.678 104.448C484.701 104.469 484.728 104.489 484.758 104.51L484.845 104.57C484.875 104.59 484.903 104.611 484.933 104.632L485.029 104.689C485.282 104.847 485.564 104.99 485.858 105.123C486.15 105.256 486.456 105.38 486.766 105.492C486.92 105.55 487.078 105.605 487.235 105.655C487.388 105.708 487.554 105.758 487.701 105.802L487.717 105.807C488.05 105.905 488.238 106.254 488.142 106.587C488.052 106.892 487.751 107.076 487.446 107.03C487.255 107 487.085 106.97 486.908 106.938C486.731 106.906 486.557 106.869 486.382 106.83C486.031 106.752 485.682 106.665 485.33 106.557C484.979 106.451 484.625 106.332 484.266 106.171L484.133 106.112C484.087 106.091 484.044 106.066 483.998 106.043L483.862 105.974C483.816 105.951 483.772 105.928 483.724 105.898C483.632 105.841 483.54 105.788 483.449 105.724C483.354 105.653 483.263 105.582 483.168 105.508C482.775 105.196 482.711 104.625 483.024 104.232C483.336 103.84 483.908 103.776 484.301 104.088C484.326 104.108 484.349 104.129 484.372 104.15L484.425 104.203L484.42 104.207Z" fill="#FFCECE"/>
<path d="M485.098 102.702C485.142 102.745 485.185 102.791 485.229 102.839C485.279 102.888 485.339 102.934 485.394 102.982L485.436 103.018L485.484 103.053L485.58 103.124L485.679 103.195L485.785 103.264C486.065 103.45 486.38 103.62 486.706 103.778C487.03 103.939 487.368 104.088 487.712 104.225C487.885 104.294 488.057 104.363 488.232 104.427C488.404 104.492 488.585 104.556 488.748 104.611L488.764 104.616C489.132 104.74 489.33 105.136 489.206 105.504C489.093 105.841 488.748 106.034 488.408 105.969C488.197 105.93 488.009 105.889 487.811 105.846C487.616 105.802 487.421 105.754 487.228 105.706C486.839 105.607 486.451 105.494 486.063 105.364C485.675 105.235 485.284 105.091 484.891 104.902L484.744 104.834L484.595 104.756L484.446 104.675L484.372 104.634L484.296 104.588C484.195 104.524 484.096 104.464 483.993 104.391C483.89 104.313 483.789 104.232 483.687 104.15C483.251 103.796 483.184 103.158 483.536 102.722C483.887 102.286 484.528 102.22 484.965 102.571C484.992 102.594 485.02 102.619 485.045 102.644L485.1 102.7L485.098 102.702Z" fill="#FFCECE"/>
<path d="M486.045 101.387C486.169 101.559 486.35 101.743 486.553 101.917C486.755 102.094 486.989 102.261 487.226 102.422C487.465 102.585 487.717 102.736 487.975 102.881C488.103 102.954 488.234 103.025 488.365 103.094C488.494 103.163 488.634 103.232 488.756 103.289L488.776 103.298C489.089 103.448 489.22 103.824 489.07 104.136C488.935 104.418 488.613 104.554 488.321 104.464C488.151 104.411 488.004 104.363 487.848 104.31C487.694 104.258 487.54 104.203 487.389 104.143C487.083 104.026 486.78 103.902 486.479 103.757C486.178 103.613 485.877 103.461 485.576 103.271C485.278 103.08 484.977 102.869 484.685 102.578L484.664 102.557C484.308 102.204 484.306 101.628 484.662 101.272C485.016 100.917 485.592 100.914 485.948 101.27C485.983 101.304 486.017 101.346 486.045 101.385V101.387Z" fill="#FFCECE"/>
<path d="M487.136 100.584C487.248 100.738 487.382 100.894 487.526 101.047C487.676 101.199 487.837 101.348 488.004 101.492C488.174 101.637 488.349 101.777 488.53 101.912C488.62 101.979 488.712 102.048 488.806 102.112C488.898 102.176 488.997 102.243 489.079 102.298L489.1 102.312C489.35 102.477 489.419 102.814 489.254 103.064C489.107 103.289 488.822 103.367 488.583 103.264C488.457 103.209 488.349 103.161 488.234 103.106C488.121 103.053 488.009 102.998 487.896 102.94C487.673 102.826 487.453 102.704 487.235 102.576C487.016 102.445 486.8 102.303 486.587 102.149C486.373 101.99 486.162 101.818 485.957 101.621L485.95 101.614C485.638 101.311 485.631 100.813 485.934 100.501C486.238 100.189 486.736 100.182 487.049 100.485C487.081 100.517 487.113 100.554 487.138 100.588L487.136 100.584Z" fill="#FFCECE"/>
<path d="M487.892 106.018C487.876 106.018 487.86 106.018 487.844 106.015C487.71 105.985 484.549 105.281 483.355 104.028C483.297 103.968 483.3 103.872 483.359 103.815C483.419 103.757 483.515 103.76 483.573 103.819C484.705 105.006 487.876 105.712 487.908 105.719C487.991 105.738 488.041 105.818 488.023 105.901C488.009 105.967 487.954 106.013 487.889 106.02L487.892 106.018Z" fill="#FFAEAE"/>
<path d="M488.491 104.671C488.471 104.671 488.45 104.671 488.429 104.664C488.312 104.625 485.535 103.695 484.345 102.447C484.287 102.387 484.29 102.291 484.349 102.234C484.409 102.176 484.506 102.179 484.563 102.238C485.703 103.431 488.496 104.365 488.524 104.377C488.604 104.402 488.645 104.489 488.62 104.57C488.602 104.629 488.549 104.666 488.491 104.673V104.671Z" fill="#FFAEAE"/>
<path d="M488.84 103.466C488.813 103.468 488.785 103.466 488.758 103.45C488.677 103.409 486.766 102.443 485.585 101.203C485.528 101.144 485.53 101.047 485.59 100.99C485.649 100.933 485.746 100.935 485.803 100.995C486.95 102.195 488.875 103.17 488.893 103.179C488.969 103.216 488.999 103.308 488.96 103.383C488.935 103.432 488.889 103.461 488.838 103.466H488.84Z" fill="#FFAEAE"/>
<path d="M428.613 258.666C428.613 258.666 418.884 257.619 411.381 258.069V258.044L408.392 256.839C408.392 256.839 400.239 261.89 400.037 262.05C399.835 262.211 399.681 266.839 399.681 266.839L401.188 266.323L401.491 266.146L401.764 265.862C403.17 264.393 405.293 263.856 407.23 264.478C413.317 266.433 426.065 270.525 426.065 270.525L434.117 265.557L428.613 258.666Z" fill="#FFCECE"/>
<path d="M500.249 193.76C498.585 196.259 495.666 197.709 492.707 198.205C489.746 198.701 486.713 198.352 483.743 197.902C480.775 197.452 477.795 196.904 474.795 197.007C469.892 197.175 465.215 199.065 460.359 199.738C459.364 199.875 458.337 199.958 457.372 199.678C456.41 199.396 454.935 197.831 455.95 196.124C457.834 192.961 462.155 185.6 478.783 190.598C491.779 194.504 498.517 187.305 500.527 190.678C500.947 191.383 500.995 192.255 500.667 193.005C500.552 193.269 500.405 193.524 500.249 193.76Z" fill="black"/>
<path d="M462.775 183.898C467.82 191.456 466.327 200.887 465.185 205.346C465.031 205.943 477.724 208.99 485.659 208.66C490.437 208.46 494.91 205.488 494.666 204.841C492.686 199.591 493.047 195.197 494.209 183.193C494.88 176.252 466.933 173.535 462.775 183.898Z" fill="#FFAEAE"/>
<path d="M482.847 302.701C509.746 249.657 496.114 208.09 495.383 206.835C495.383 206.835 466.842 206.842 464.763 206.851C460.313 220.266 448.142 222.343 457.556 263.009C448.578 257.465 428.613 258.663 428.613 258.663L426.065 270.522C426.065 270.522 463.727 280.759 467.763 274.949C473.559 266.605 478.709 232.497 478.709 232.497C478.709 232.497 477.508 255.428 482.399 267.383C471.797 273.659 471.455 302.462 471.455 302.462C471.455 302.462 478.234 302.855 482.849 302.701H482.847Z" fill="#E30C40"/>
<path d="M462.296 159.291L458.383 140.718L469.948 135.842L477.361 161.483L462.296 159.291Z" fill="black"/>
<path d="M496.18 209.224C495.693 207.407 494.908 205.488 494.664 204.841C484.862 206.331 474.958 206.473 465.185 205.346C465.034 205.943 464.887 206.45 464.763 206.851C464.448 207.801 464.11 208.662 463.72 209.532C474.51 211.209 484.446 211.172 496.18 209.224Z" fill="#3F3F63"/>
<path d="M494.887 161.494C499.684 170.409 500.874 191.734 500.878 191.773C499.991 188.31 493.419 194.919 479.242 192.2C461.753 188.847 455.785 195.665 455.642 196.929C456.442 191.775 458.289 179.595 457.914 176.447C456.954 179.175 453.035 183.2 448.751 188.145C443.122 188.179 438.029 183.606 437.397 177.507C448.355 157.488 466.226 152.46 466.226 152.46C466.226 152.46 477.382 153.135 480.6 151.524C487.931 147.852 492.05 141.666 495.48 137.611C492.654 142.398 506.665 151.152 510.513 148.001C506.819 152.309 500.878 158.263 494.885 161.494H494.887Z" fill="#263238"/>
<path d="M475.45 143.775C474.864 144.043 474.149 144.061 473.497 144.018C470.92 143.85 468.363 143.185 465.971 142.067C467.322 145.324 467.458 149.169 466.224 152.458C466.681 154.757 468.606 156.492 470.437 157.74C472.705 159.285 475.755 159.631 477.935 157.974C479.78 156.57 480.685 154.096 480.598 151.522C478.321 149.39 476.773 146.753 475.447 143.775H475.45Z" fill="#FFCECE"/>
<path d="M468.064 148.743C472.08 149.739 474.604 147.568 475.845 144.635C475.661 144.254 475.627 144.167 475.452 143.775C474.866 144.043 474.152 144.061 473.499 144.018C470.922 143.85 468.365 143.185 465.974 142.067C466.798 144.059 467.171 146.269 467.053 148.44C467.386 148.555 467.724 148.655 468.066 148.74L468.064 148.743Z" fill="#FFAEAE"/>
<path d="M456.056 136.599C453.111 131.087 459.417 123.549 465.328 124.437C470.63 125.233 475.248 133.354 476.375 138.1C477.607 143.279 475.362 148.821 469.288 147.933C463.504 147.086 458.673 141.496 456.056 136.597V136.599Z" fill="#FFCECE"/>
<path d="M480.6 151.524C480.318 153.995 479.484 156.386 477.697 157.747C476.792 158.435 475.73 158.768 474.641 158.805C473.189 158.853 471.687 158.378 470.43 157.522C468.657 156.313 467.306 154.475 466.226 152.462C466.226 152.462 464.988 151.643 464.129 153.206C464.166 153.311 464.212 153.415 464.264 153.513C465.689 156.166 467.295 158.078 469.176 159.36C470.848 160.501 472.817 161.093 474.717 161.028C476.321 160.976 477.768 160.384 479.045 159.519C482.089 157.46 482.769 150.849 482.549 150.45C481.728 150.191 480.897 150.801 480.603 151.526L480.6 151.524Z" fill="white"/>
<path d="M465.495 222.269C464.11 221.03 445.491 193.473 443.315 191.667C440.389 189.237 435.132 185.508 432.41 191.229C430.77 194.673 435.72 199.41 437.754 201.537C438.275 202.083 438.859 202.572 439.442 203.051C440.239 203.705 441.057 204.336 441.877 204.965C442.86 205.718 443.846 206.468 444.827 207.223C445.913 208.061 446.993 208.907 448.059 209.772C449.173 210.679 450.271 211.604 451.34 212.56C452.408 213.515 453.446 214.502 454.439 215.534C454.556 215.656 454.694 215.805 454.845 215.98C455.449 216.663 455.686 217.595 455.484 218.483C454.326 223.543 453.412 226.907 453.393 227.038C453.37 227.205 453.393 227.384 453.483 227.529C453.743 227.933 454.168 227.703 454.358 227.384C454.537 227.086 454.604 226.739 454.721 226.416C454.866 226.012 455.011 225.61 455.155 225.207C454.96 225.75 454.79 226.443 454.662 227.008C454.599 227.279 454.512 227.758 454.441 228.284C454.361 228.867 454.411 229.429 454.903 229.569C455.268 229.674 455.468 229.326 455.599 229.05C455.766 228.701 455.92 228.348 456.063 227.988C456.35 227.27 456.594 226.537 456.837 225.803C456.713 226.173 456.727 226.583 456.674 226.967C456.607 227.442 456.525 227.912 456.414 228.38C456.325 228.766 456.185 229.204 456.394 229.578C456.49 229.752 456.674 229.865 456.867 229.915C456.984 229.945 457.166 229.922 457.264 229.851C457.588 229.615 457.797 228.981 457.935 228.651C458.133 228.176 458.291 227.687 458.466 227.203C458.238 228.334 458.105 229.007 458.854 229.195C459.688 229.404 460.749 223.892 460.901 223.183C461.471 220.519 463.972 223.233 464.751 223.807C465.293 224.206 466.143 224.307 466.286 223.648C466.403 223.102 465.911 222.637 465.495 222.265V222.269Z" fill="#FFCECE"/>
<path d="M459.031 224.172C459.065 224.146 459.111 224.137 459.157 224.146C459.242 224.165 459.295 224.25 459.274 224.334L458.42 228.075C458.402 228.16 458.317 228.213 458.232 228.192C458.147 228.173 458.094 228.089 458.114 228.004L458.969 224.263C458.978 224.224 459.001 224.192 459.031 224.169V224.172Z" fill="#FFAEAE"/>
<path d="M457.189 223.467C457.228 223.44 457.276 223.428 457.324 223.44C457.416 223.46 457.476 223.552 457.455 223.644L456.552 227.667C456.532 227.758 456.44 227.818 456.348 227.797C456.256 227.777 456.196 227.685 456.217 227.593L457.12 223.571C457.129 223.527 457.154 223.492 457.189 223.467Z" fill="#FFAEAE"/>
<path d="M455.594 223.121C455.636 223.091 455.689 223.082 455.741 223.095C455.833 223.123 455.884 223.217 455.859 223.309L454.749 227.116C454.721 227.207 454.627 227.258 454.535 227.233C454.443 227.205 454.393 227.111 454.418 227.019L455.528 223.212C455.539 223.173 455.562 223.141 455.594 223.121Z" fill="#FFAEAE"/>
<path d="M398.897 261.49C398.445 261.796 397.923 262.225 397.785 262.773L396.501 267.872C396.324 268.576 396.409 269.313 396.754 269.926C396.839 270.075 396.998 270.263 397.165 270.444C397.491 270.793 398.468 270.853 398.762 270.451C399.704 269.157 401.567 266.536 401.491 266.144C400.928 264.666 401.493 262.938 402.814 262.098L404.942 260.745C406.065 260.029 407.262 259.46 408.505 259.044L411.381 258.041L411.022 256.979C410.416 255.18 408.636 254.182 406.86 254.645L405.727 254.939L404.374 255.224L399.593 254.856L399.396 255.641L404.381 256.892C404.521 256.926 404.606 257.078 404.567 257.231L404.507 257.47C404.42 257.821 404.22 258.074 403.931 258.271L398.897 261.493V261.49Z" fill="#3F3F63"/>
<path d="M457.278 138.132C459.621 139.959 464.871 136.156 468.053 131.278C471.03 126.714 469.798 125.486 466.805 124.263C463.812 123.04 460.839 123.903 457.779 128.669C454.719 133.435 454.728 136.145 457.278 138.13V138.132Z" fill="#FFAEAE"/>
<path d="M454.354 138.6C457.951 139.727 462.633 137.06 466.518 132.161C470.403 127.262 470.669 124.219 467.074 123.092C463.476 121.968 459.176 124.169 455.289 129.066C451.404 133.965 450.756 137.471 454.352 138.598L454.354 138.6Z" fill="#5B5B5B"/>
<path d="M460.538 139.243C461.648 140.401 461.765 142.088 460.8 143.01C459.835 143.933 458.153 143.74 457.044 142.579C455.934 141.42 455.817 139.734 456.782 138.811C457.747 137.889 459.428 138.081 460.538 139.243Z" fill="#FFCECE"/>
<path d="M509.452 128.944C508.919 128.963 507.922 128.719 507.437 128.217C507.34 128.116 507.343 127.955 507.444 127.859C507.545 127.762 507.706 127.764 507.802 127.865C508.165 128.242 508.997 128.453 509.434 128.439C509.574 128.435 509.691 128.545 509.696 128.683C509.7 128.82 509.59 128.94 509.452 128.944Z" fill="#FFAEAE"/>
<path d="M443.022 191.629C442.489 191.647 441.492 191.404 441.007 190.901C440.91 190.8 440.913 190.639 441.014 190.543C441.115 190.447 441.276 190.449 441.372 190.55C441.735 190.926 442.567 191.138 443.004 191.124C443.144 191.119 443.261 191.229 443.266 191.367C443.27 191.507 443.16 191.624 443.022 191.629Z" fill="#FFAEAE"/>
<path d="M495.611 107.819C496.702 108.746 497.834 109.625 498.992 110.469C500.152 111.316 501.338 112.128 502.535 112.918C503.681 113.673 504.839 114.407 506.004 115.134C507.053 115.788 508.11 116.436 509.162 117.09C510.04 117.633 510.917 118.18 511.777 118.751C512.406 119.169 513.036 119.598 513.61 120.091C514.894 121.193 517.224 123.054 518.728 125.121C518.037 122.051 513.842 119.035 511.91 117.523C511.315 117.057 510.667 116.656 510.019 116.266C509.135 115.733 508.234 115.226 507.334 114.721C506.254 114.116 505.17 113.517 504.09 112.909C502.895 112.234 501.703 111.552 500.527 110.848C499.293 110.111 498.076 109.352 496.879 108.558C496.236 108.131 495.599 107.693 494.97 107.241C495.216 107.472 495.436 107.674 495.608 107.821L495.611 107.819Z" fill="#FFAEAE"/>
<path d="M439.444 203.051C440.242 203.705 441.059 204.336 441.88 204.965C442.863 205.718 443.848 206.468 444.829 207.223C445.482 207.728 446.132 208.235 446.78 208.747C442.736 205.142 435.162 198.62 432.111 192.294C431.732 195.591 435.927 199.621 437.756 201.537C438.277 202.083 438.861 202.572 439.444 203.051Z" fill="#FFE3E3"/>
</g>
<defs>
<clipPath id="clip0_184_4296">
<rect width="559.234" height="330.942" fill="white" transform="translate(0.390625 0.518799)"/>
</clipPath>
</defs>
</svg>
